<svg width="11" height="17" viewBox="0 0 11 17" fill="none" xmlns="http://www.w3.org/2000/svg">
<path fill-rule="evenodd" clip-rule="evenodd" d="M5.36806 0.68396C5.73906 0.68396 6.03908 0.98398 6.03908 1.35498V14.461L9.58407 10.802C9.84207 10.536 10.2671 10.529 10.5331 10.787C10.7991 11.045 10.8061 11.47 10.5481 11.736L5.85006 16.585C5.72406 16.715 5.55006 16.789 5.36806 16.789C5.18706 16.789 5.01307 16.715 4.88607 16.585L0.189109 11.736C-0.0688909 11.47 -0.0619373 11.045 0.204063 10.787C0.470063 10.529 0.895098 10.536 1.1531 10.802L4.6971 14.461V1.35498C4.6971 0.98398 4.99806 0.68396 5.36806 0.68396Z" fill="#FBF79F"/>
</svg>
