<svg width="12" height="22" viewBox="0 0 12 22" fill="none" xmlns="http://www.w3.org/2000/svg">
<path d="M11.33 0.339844L8.56995 0.330078C5.45995 0.330078 3.44995 2.39008 3.44995 5.58008V8H0.670044C0.430044 8 0.22998 8.19994 0.22998 8.43994V11.9502C0.22998 12.1902 0.430044 12.3799 0.670044 12.3799H3.44995V21.23C3.44995 21.47 3.65001 21.6699 3.89001 21.6699H7.51001C7.76001 21.6699 7.94995 21.47 7.94995 21.23V12.3799H11.2C11.44 12.3799 11.64 12.1902 11.64 11.9502V8.43994C11.64 8.31994 11.59 8.20988 11.51 8.12988C11.43 8.04988 11.32 8 11.2 8H7.94995V5.9502C7.94995 4.9602 8.17997 4.45996 9.46997 4.45996H11.33C11.57 4.45996 11.77 4.26979 11.77 4.02979V0.77002C11.77 0.53002 11.57 0.339844 11.33 0.339844Z" fill="#3A5998"/>
</svg>
