<svg width="72" height="72" viewBox="0 0 72 72" fill="none" xmlns="http://www.w3.org/2000/svg">
<g opacity="0.4">
<path opacity="0.4" d="M35.9998 0.840088L34.6598 4.97998H30.2998L33.8297 7.53003L32.4797 11.6699L35.9998 9.1001L39.5198 11.6699L38.1698 7.53003L41.6997 4.97998H37.3397L35.9998 0.840088Z" fill="#FBF79F"/>
<path opacity="0.4" d="M50.8701 4.82007L49.5402 8.96997L45.1802 8.95996L48.7001 11.51L47.3501 15.6599L50.8701 13.0901L54.3901 15.6599L53.0402 11.51L56.5701 8.95996L52.2201 8.96997L50.8701 4.82007Z" fill="#FBF79F"/>
<path opacity="0.4" d="M61.76 15.71L60.42 19.8501H56.0601L59.59 22.4099L58.24 26.54L61.76 23.97L65.28 26.54L63.9301 22.4099L67.46 19.8501H63.1L61.76 15.71Z" fill="#FBF79F"/>
<path opacity="0.4" d="M65.7397 30.5801L64.4098 34.73L60.0498 34.72L63.5797 37.27L62.2197 41.4099L65.7397 38.8501L69.2598 41.4099L67.9098 37.27L71.4397 34.72L67.0897 34.73L65.7397 30.5801Z" fill="#FBF79F"/>
<path opacity="0.4" d="M61.76 45.7L60.42 49.8601L56.0601 49.8501L59.59 52.3999L58.24 56.54L61.76 53.98L65.28 56.54L63.9301 52.3999L67.46 49.8501L63.1 49.8601L61.76 45.7Z" fill="#FBF79F"/>
<path opacity="0.4" d="M50.8701 56.3401L49.5402 60.49L45.1802 60.48L48.7001 63.04L47.3501 67.1799L50.8701 64.6201L54.3901 67.1799L53.0402 63.04L56.5701 60.48L52.2201 60.49L50.8701 56.3401Z" fill="#FBF79F"/>
<path opacity="0.4" d="M35.9998 60.3301L34.6598 64.47L30.2998 64.46L33.8297 67.02L32.4797 71.1599L35.9998 68.6001L39.5198 71.1599L38.1698 67.02L41.6997 64.46L37.3397 64.47L35.9998 60.3301Z" fill="#FBF79F"/>
<path opacity="0.4" d="M21.1301 56.3401L19.7802 60.49L15.4302 60.48L18.9601 63.04L17.6101 67.1799L21.1301 64.6201L24.6501 67.1799L23.3002 63.04L26.8201 60.48L22.4601 60.49L21.1301 56.3401Z" fill="#FBF79F"/>
<path opacity="0.4" d="M10.24 45.46L8.90002 49.6001L4.54004 49.5901L8.06995 52.1499L6.71997 56.29L10.24 53.73L13.76 56.29L12.41 52.1499L15.9399 49.5901L11.58 49.6001L10.24 45.46Z" fill="#FBF79F"/>
<path opacity="0.4" d="M6.26001 30.5801L4.91003 34.73L0.560059 34.72L4.08997 37.27L2.73999 41.4099L6.26001 38.8501L9.78003 41.4099L8.42004 37.27L11.95 34.72L7.58997 34.73L6.26001 30.5801Z" fill="#FBF79F"/>
<path opacity="0.4" d="M10.24 15.71L8.90002 19.8501H4.54004L8.06995 22.4099L6.71997 26.54L10.24 23.97L13.76 26.54L12.41 22.4099L15.9399 19.8501H11.58L10.24 15.71Z" fill="#FBF79F"/>
<path opacity="0.4" d="M21.1301 4.82007L19.7802 8.96997L15.4302 8.95996L18.9601 11.51L17.6101 15.6599L21.1301 13.0901L24.6501 15.6599L23.3002 11.51L26.8201 8.95996L22.4601 8.96997L21.1301 4.82007Z" fill="#FBF79F"/>
</g>
</svg>
