<svg width="74" height="62" viewBox="0 0 74 62" fill="none" xmlns="http://www.w3.org/2000/svg">
<g opacity="0.4">
<path opacity="0.4" d="M19.3923 12.3899L14.8882 26.3301L0.240234 26.3101L12.1042 34.8999L7.55225 48.8201L19.3923 40.2L31.2322 48.8201L26.6802 34.8999L38.5443 26.3101L23.8962 26.3301L19.3923 12.3899Z" fill="#FBF79F"/>
<path opacity="0.4" d="M53.5762 48.6599L51.9763 53.6201L46.7603 53.6101L50.9843 56.6699L49.3682 61.6201L53.5762 58.55L57.7922 61.6201L56.1763 56.6699L60.4003 53.6101L55.1843 53.6201L53.5762 48.6599Z" fill="#FBF79F"/>
<path opacity="0.4" d="M65.6003 14.1899L64.6724 19.3201L59.5044 20.01L64.0964 22.47L63.1523 27.6101L66.9203 24L71.5044 26.48L69.2404 21.78L73.0164 18.1899L67.8484 18.8999L65.6003 14.1899Z" fill="#FBF79F"/>
<path opacity="0.4" d="M57.5121 0.379883L53.9521 4.17993L49.2401 1.95996L51.7601 6.52002L48.1841 10.3201L53.3041 9.33008L55.808 13.8999L56.4481 8.72998L61.576 7.76001L56.8561 5.54004L57.5121 0.379883Z" fill="#FBF79F"/>
<path opacity="0.4" d="M70.287 34.4199L66.3751 37.8701L61.8951 35.1899L63.959 39.99L60.0391 43.4199L65.2311 42.9299L67.2791 47.72L68.423 42.6299L73.6151 42.1599L69.1271 39.51L70.287 34.4199Z" fill="#FBF79F"/>
</g>
</svg>
