<svg width="80" height="60" viewBox="0 0 80 60" fill="none" xmlns="http://www.w3.org/2000/svg">
<g opacity="0.4">
<path opacity="0.4" d="M63.2998 16.22L63.3397 26.79L53.2998 30.0701L63.3597 33.29L63.3798 43.8701L69.5498 35.29L79.6198 38.55L73.3597 30.01L79.5697 21.45L69.5298 24.77L63.2998 16.22Z" fill="#FBF79F"/>
<path opacity="0.4" d="M37.1398 54.3602C33.2098 54.3602 29.3398 53.4002 25.8698 51.5602C22.3998 49.7102 19.4398 47.0501 17.2498 43.7901C15.0498 40.5302 13.6898 36.78 13.2898 32.88C12.8798 28.97 13.4498 25.02 14.9298 21.38C16.4098 17.75 18.7598 14.5301 21.7698 12.0101C24.7898 9.50012 28.3797 7.76007 32.2297 6.96007C36.0697 6.16007 40.0497 6.32003 43.8297 7.42003C47.5997 8.52003 51.0397 10.5301 53.8497 13.2701C50.2197 8.20013 45.0698 4.42007 39.1498 2.46007C33.2298 0.510073 26.8498 0.480004 20.9098 2.39C14.9798 4.29 9.79976 8.03018 6.12976 13.0702C2.44976 18.1102 0.469727 24.18 0.469727 30.42C0.469727 36.65 2.44976 42.7201 6.12976 47.7601C9.79976 52.8001 14.9798 56.5401 20.9098 58.4501C26.8498 60.3501 33.2298 60.3302 39.1498 58.3702C45.0698 56.4102 50.2197 52.6302 53.8497 47.5602C49.3797 51.9302 43.3798 54.3702 37.1398 54.3602Z" fill="#FBF79F"/>
</g>
</svg>
