<svg width="20" height="20" viewBox="0 0 20 20" fill="none" xmlns="http://www.w3.org/2000/svg">
<path d="M2.96997 9.375C3.43997 9.375 3.86994 9.18498 4.18994 8.88098L5.92004 9.74799C5.91004 9.81899 5.90002 9.888 5.90002 9.961C5.90002 10.93 6.69003 11.719 7.66003 11.719C8.63003 11.719 9.41003 10.93 9.41003 9.961C9.41003 9.69 9.34999 9.43701 9.23999 9.20801L11.59 6.85498C11.82 6.96498 12.07 7.03101 12.34 7.03101C13.31 7.03101 14.1 6.24301 14.1 5.27301C14.1 5.09101 14.07 4.91799 14.01 4.75299L16.0601 3.21997C16.3401 3.40597 16.67 3.51599 17.03 3.51599C18 3.51599 18.79 2.727 18.79 1.758C18.79 0.788996 18 0 17.03 0C16.06 0 15.27 0.788996 15.27 1.758C15.27 1.94 15.31 2.11302 15.36 2.27802L13.3199 3.81097C13.0399 3.62497 12.7 3.51599 12.34 3.51599C11.37 3.51599 10.59 4.30401 10.59 5.27301C10.59 5.54401 10.65 5.797 10.76 6.026L8.41003 8.37903C8.18003 8.27003 7.93003 8.203 7.66003 8.203C7.18003 8.203 6.75994 8.39302 6.43994 8.69702L4.70996 7.83002C4.70996 7.76002 4.72998 7.69 4.72998 7.617C4.72998 6.648 3.93997 5.85901 2.96997 5.85901C1.99997 5.85901 1.20996 6.648 1.20996 7.617C1.20996 8.586 1.99997 9.375 2.96997 9.375Z" fill="#FBF79F"/>
<path d="M19.41 18.828H18.79V6.44501C18.79 6.12201 18.53 5.85901 18.2 5.85901H15.86C15.54 5.85901 15.27 6.12201 15.27 6.44501V18.828H14.1V9.961C14.1 9.637 13.84 9.375 13.52 9.375H11.17C10.85 9.375 10.59 9.637 10.59 9.961V18.828H9.41003V14.648C9.41003 14.325 9.14996 14.062 8.82996 14.062H6.47998C6.15998 14.062 5.90002 14.325 5.90002 14.648V18.828H4.72998V12.305C4.72998 11.981 4.46001 11.719 4.14001 11.719H1.80005C1.47005 11.719 1.20996 11.981 1.20996 12.305V18.828H0.589966C0.259966 18.828 0 19.09 0 19.414C0 19.738 0.259966 20 0.589966 20H19.41C19.74 20 20 19.738 20 19.414C20 19.09 19.74 18.828 19.41 18.828Z" fill="#FBF79F"/>
</svg>
