<svg width="16" height="20" viewBox="0 0 16 20" fill="none" xmlns="http://www.w3.org/2000/svg">
<path d="M7.99692 0C4.00292 0 0.753906 3.24999 0.753906 7.23999C0.753906 12.2 7.2359 19.48 7.5119 19.78C7.7709 20.07 8.2239 20.07 8.4819 19.78C8.7579 19.48 15.2399 12.2 15.2399 7.23999C15.2399 3.24999 11.9909 0 7.99692 0ZM7.99692 10.8899C5.98792 10.8899 4.35291 9.24999 4.35291 7.23999C4.35291 5.22999 5.98792 3.6001 7.99692 3.6001C10.0069 3.6001 11.6409 5.22999 11.6409 7.23999C11.6409 9.24999 10.0069 10.8899 7.99692 10.8899Z" fill="#FFDD00"/>
</svg>
