<svg width="20" height="20" viewBox="0 0 20 20" fill="none" xmlns="http://www.w3.org/2000/svg">
<path d="M19.6 19.6001V12.5601C19.6 9.11006 18.86 6.45996 14.83 6.45996C12.9 6.45996 11.5999 7.51979 11.0699 8.52979H11.01V6.77979H7.18994V19.6001H11.17V13.25C11.17 11.58 11.48 9.95996 13.55 9.95996C15.59 9.95996 15.62 11.8699 15.62 13.3599V19.6001H19.6Z" fill="#0077B5"/>
<path d="M0.719727 6.77979H4.69971V19.6001H0.719727V6.77979Z" fill="#0077B5"/>
<path d="M2.70984 0.399902C1.42984 0.399902 0.399902 1.4302 0.399902 2.7002C0.399902 3.9802 1.42984 5.02979 2.70984 5.02979C3.97984 5.02979 5.00989 3.9802 5.00989 2.7002C5.00989 1.4302 3.97984 0.399902 2.70984 0.399902Z" fill="#0077B5"/>
</svg>
