<svg width="22" height="22" viewBox="0 0 22 22" fill="none" xmlns="http://www.w3.org/2000/svg">
<path fill-rule="evenodd" clip-rule="evenodd" d="M15.3102 0.330078H6.69006C3.18006 0.330078 0.330078 3.17994 0.330078 6.68994V15.3101C0.330078 18.8101 3.18006 21.6699 6.69006 21.6699H15.3102C18.8202 21.6699 21.6702 18.8101 21.6702 15.3101V6.68994C21.6702 3.17994 18.8202 0.330078 15.3102 0.330078ZM19.5201 15.3101C19.5201 17.6301 17.6402 19.52 15.3102 19.52H6.69006C4.36006 19.52 2.4801 17.6301 2.4801 15.3101V6.68994C2.4801 4.35994 4.36006 2.47998 6.69006 2.47998H15.3102C17.6402 2.47998 19.5201 4.35994 19.5201 6.68994V15.3101ZM11.0001 5.47998C7.96012 5.47998 5.4801 7.96 5.4801 11C5.4801 14.04 7.96012 16.52 11.0001 16.52C14.0401 16.52 16.5201 14.04 16.5201 11C16.5201 7.96 14.0401 5.47998 11.0001 5.47998ZM11.0001 14.3701C9.14012 14.3701 7.63013 12.86 7.63013 11C7.63013 9.14 9.14012 7.62988 11.0001 7.62988C12.8601 7.62988 14.3701 9.14 14.3701 11C14.3701 12.86 12.8601 14.3701 11.0001 14.3701ZM17.8501 5.52002C17.8501 6.25002 17.2602 6.83984 16.5302 6.83984C15.8002 6.83984 15.2101 6.25002 15.2101 5.52002C15.2101 4.79002 15.8002 4.2002 16.5302 4.2002C17.2602 4.2002 17.8501 4.79002 17.8501 5.52002Z" fill="url(#paint0_linear)"/>
<defs>
<linearGradient id="paint0_linear" x1="16.5301" y1="21.5999" x2="16.5301" y2="0.500077" gradientUnits="userSpaceOnUse">
<stop stop-color="#E09B3D"/>
<stop offset="0.3" stop-color="#C74C4D"/>
<stop offset="0.6" stop-color="#C21975"/>
<stop offset="1" stop-color="#7024C4"/>
</linearGradient>
</defs>
</svg>
