<svg width="16" height="20" viewBox="0 0 16 20" fill="none" xmlns="http://www.w3.org/2000/svg">
<g opacity="0.6">
<path opacity="0.6" d="M7.99689 0C4.00289 0 0.753906 3.2493 0.753906 7.2432C0.753906 12.1998 7.2359 19.4763 7.5119 19.7836C7.7709 20.0723 8.22387 20.0718 8.48187 19.7836C8.75787 19.4763 15.2399 12.1998 15.2399 7.2432C15.2399 3.2493 11.9909 0 7.99689 0ZM7.99689 10.8875C5.98789 10.8875 4.35291 9.2527 4.35291 7.2432C4.35291 5.2338 5.98789 3.599 7.99689 3.599C10.0069 3.599 11.6409 5.2338 11.6409 7.2432C11.6409 9.2527 10.0069 10.8875 7.99689 10.8875Z" fill="white"/>
</g>
</svg>
