<svg width="24" height="24" viewBox="0 0 24 24" fill="none" xmlns="http://www.w3.org/2000/svg">
<path d="M12.0001 3.52002C10.8401 3.52002 9.89014 4.46012 9.89014 5.62012C9.89014 6.79012 10.8401 7.72998 12.0001 7.72998C13.1601 7.72998 14.1101 6.79012 14.1101 5.62012C14.1101 4.46012 13.1601 3.52002 12.0001 3.52002Z" fill="#FFDD00"/>
<path d="M11.9999 0C8.89988 0 6.37988 2.52012 6.37988 5.62012C6.37988 6.69012 6.66987 7.72012 7.23987 8.62012L11.9999 16.22L16.7599 8.62012C17.3299 7.72012 17.6199 6.69012 17.6199 5.62012C17.6199 2.52012 15.0999 0 11.9999 0ZM11.9999 9.13989C10.0599 9.13989 8.47986 7.56012 8.47986 5.62012C8.47986 3.69012 10.0599 2.11011 11.9999 2.11011C13.9399 2.11011 15.5199 3.69012 15.5199 5.62012C15.5199 7.56012 13.9399 9.13989 11.9999 9.13989Z" fill="#FFDD00"/>
<path d="M8.58008 24H15.4202L14.8801 19.73H9.11011L8.58008 24Z" fill="#FFDD00"/>
<path d="M9.28027 18.3301H11.6703L9.6803 15.1699L9.28027 18.3301Z" fill="#FFDD00"/>
<path d="M16.1201 18.3301H21.6602L19.9001 14.1101H15.5801L16.1201 18.3301Z" fill="#FFDD00"/>
<path d="M2.33984 18.3301H7.85986L8.38989 14.1101H4.09985L2.33984 18.3301Z" fill="#FFDD00"/>
<path d="M12.3301 18.3301H14.7001L14.3002 15.21L12.3301 18.3301Z" fill="#FFDD00"/>
<path d="M7.68994 19.73H1.76001L0 24H7.16003L7.68994 19.73Z" fill="#FFDD00"/>
<path d="M22.2397 19.73H16.2998L16.8397 24H23.9998L22.2397 19.73Z" fill="#FFDD00"/>
</svg>
