<svg width="18" height="16" viewBox="0 0 18 16" fill="none" xmlns="http://www.w3.org/2000/svg">
<path d="M17.2699 0.939941C17.0599 0.679941 16.7499 0.529785 16.3899 0.529785C16.1999 0.529785 15.9899 0.570156 15.7799 0.660156L1.32986 6.35986C0.55986 6.65986 0.459875 7.11986 0.469875 7.35986C0.469875 7.60986 0.599909 8.05006 1.37991 8.31006C1.38991 8.31006 1.38993 8.31006 1.39993 8.31006L3.41995 8.91016L13.2899 3.7002C13.5399 3.5702 13.8399 3.67018 13.9599 3.93018C14.0599 4.13018 14.0199 4.35977 13.8799 4.50977V4.52002L8.39993 10.54L8.23989 11.2002L10.1999 12.8301L12.9099 15.0898C12.9199 15.0898 12.9199 15.1001 12.9199 15.1001C13.2199 15.3401 13.5499 15.46 13.8599 15.46C14.4899 15.46 14.9799 14.99 15.1299 14.25L17.4899 2.16016C17.5899 1.68016 17.5099 1.23994 17.2699 0.939941Z" fill="#5AAAE7"/>
<path d="M7.56995 9.99023C7.58995 9.91023 7.62994 9.83002 7.68994 9.77002L11.13 5.87012L4.72998 9.3501L6.18994 13.77C6.26994 14.02 6.39005 14.2299 6.55005 14.3999L7.56995 9.99023Z" fill="#5AAAE7"/>
<path d="M6.87012 15.4702C7.41012 15.4602 7.94015 15.2802 8.40015 14.9302L10.0701 13.7002L7.8501 12.27L6.87012 15.4702Z" fill="#5AAAE7"/>
</svg>
