<svg width="28" height="24" viewBox="0 0 28 24" fill="none" xmlns="http://www.w3.org/2000/svg">
<path d="M10.1912 21.8199C9.38419 21.8199 9.52119 21.51 9.24319 20.72L6.86719 12.74L21.5692 3.34998L23.2852 3.81006L21.8602 7.80005L10.1912 21.8199Z" fill="#C8DAEA"/>
<path d="M10.1909 21.8199C10.8139 21.8199 11.0899 21.5301 11.4369 21.1801C11.9729 20.6501 18.9119 13.75 18.9119 13.75L14.6619 12.7L10.7159 15.25L10.1909 21.61V21.8199Z" fill="#A9C9DD"/>
<path d="M10.616 15.33L20.657 22.9101C21.803 23.5601 22.63 23.22 22.916 21.82L27.003 2.14004C27.422 0.420043 26.364 -0.349947 25.268 0.150053L1.26502 9.61001C-0.372981 10.29 -0.363985 11.22 0.967015 11.64L7.12601 13.6L21.385 4.41006C22.059 3.99006 22.676 4.21007 22.169 4.67007L10.616 15.33Z" fill="url(#paint0_linear)"/>
<defs>
<linearGradient id="paint0_linear" x1="17.875" y1="10.15" x2="23.229" y2="18.53" gradientUnits="userSpaceOnUse">
<stop stop-color="#EFF7FC"/>
<stop offset="1" stop-color="white"/>
</linearGradient>
</defs>
</svg>
