<svg width="22" height="22" viewBox="0 0 22 22" fill="none" xmlns="http://www.w3.org/2000/svg">
<g opacity="0.6">
<path opacity="0.6" d="M12.1971 0.703125C8.88311 0.703125 5.95008 2.35753 4.17508 4.88203C4.54208 5.12173 4.9001 5.45053 5.2471 5.87303C6.5711 3.89263 8.71309 2.50322 11.1901 2.20452L12.1971 3.90763L13.2031 2.20443C17.0121 2.66353 20.0391 5.69083 20.4991 9.49953L18.7951 10.506L20.4991 11.5126C20.1921 14.059 18.7331 16.2513 16.6641 17.5652C16.7961 17.8656 16.8701 18.1728 16.8841 18.4895C16.8931 18.7209 16.8691 18.9396 16.8211 19.1472C19.9011 17.4925 22.0001 14.2403 22.0001 10.5062C22.0001 5.10063 17.6021 0.703125 12.1971 0.703125ZM14.6991 16.8479C12.4391 15.0317 11.8071 15.9244 10.7811 16.9497C10.0661 17.6658 8.25409 16.1704 6.69009 14.6061C5.12609 13.0416 3.6301 11.2304 4.3461 10.5144C5.3721 9.48913 6.26411 8.85693 4.44711 6.59763C2.63111 4.33753 1.42109 6.07273 0.427091 7.06603C-0.718909 8.21233 0.367078 12.4843 4.58908 16.707C8.81208 20.9291 13.0841 22.0147 14.2301 20.8688C15.2231 19.8754 16.9581 18.6649 14.6991 16.8479ZM7.81607 12.0403C7.81607 10.0316 10.1681 9.67373 10.1681 8.88993C10.1681 8.50953 9.86306 8.34983 9.58206 8.34983C9.06406 8.34983 8.77511 8.92803 8.77511 8.92803L7.7861 8.26603C7.7861 8.26603 8.28809 7.09413 9.70309 7.09413C10.5941 7.09413 11.5601 7.60403 11.5601 8.76063C11.5601 10.4576 9.36911 10.785 9.33011 11.4851H11.6441V12.6264H7.8771C7.8391 12.4134 7.81607 12.2233 7.81607 12.0403ZM12.2001 10.5034L14.3011 7.18533H15.9291V10.2065H16.5761V11.3098H15.9291V12.6265H14.6131V11.3098H12.2001V10.5034ZM14.6131 10.2065V8.98893C14.6131 8.69213 14.6581 8.38003 14.6581 8.38003H14.6431C14.6431 8.38003 14.5291 8.71493 14.3771 8.94323L13.5551 10.1913V10.2066L14.6131 10.2065Z" fill="white"/>
</g>
</svg>
