<svg width="22" height="18" viewBox="0 0 22 18" fill="none" xmlns="http://www.w3.org/2000/svg">
<path d="M21.3299 2.18994C20.8499 2.39994 20.3599 2.56994 19.8599 2.68994C20.4099 2.15994 20.8299 1.49977 21.0699 0.759766C21.1399 0.549766 20.9099 0.35998 20.7199 0.47998C20.0099 0.88998 19.2599 1.21016 18.4699 1.41016C18.4199 1.42016 18.3699 1.41992 18.3299 1.41992C18.1799 1.41992 18.04 1.37002 17.93 1.27002C17.09 0.53002 16.01 0.120117 14.89 0.120117C14.4 0.120117 13.91 0.200098 13.43 0.350098C11.94 0.810098 10.79 2.04006 10.43 3.56006C10.29 4.13006 10.2599 4.7 10.3199 5.25C10.3299 5.32 10.3 5.35988 10.28 5.37988C10.25 5.41988 10.2 5.43994 10.15 5.43994H10.14C6.86996 5.13994 3.92992 3.55977 1.84992 1.00977C1.73992 0.879766 1.5399 0.900039 1.4499 1.04004C1.0499 1.74004 0.829901 2.5401 0.829901 3.3501C0.829901 4.6001 1.3299 5.77988 2.1999 6.62988C1.8399 6.54988 1.47997 6.40998 1.14997 6.22998C0.989969 6.13998 0.799984 6.25018 0.789984 6.43018C0.769984 8.29018 1.85993 9.93018 3.47993 10.6802C3.44993 10.6802 3.41995 10.6802 3.37995 10.6802C3.12995 10.6802 2.85993 10.6501 2.60993 10.6001C2.42993 10.5701 2.2799 10.7402 2.3299 10.9102C2.8599 12.5602 4.27992 13.7698 5.96992 14.0498C4.56992 14.9898 2.92992 15.4902 1.21992 15.4902H0.689886C0.529886 15.4902 0.38992 15.5998 0.34992 15.7598C0.29992 15.9098 0.379964 16.0802 0.519964 16.1602C2.43996 17.2802 4.63993 17.8701 6.85993 17.8701C8.80993 17.8701 10.64 17.4802 12.28 16.7202C13.79 16.0202 15.1299 15.02 16.2499 13.75C17.2899 12.56 18.11 11.1902 18.68 9.68018C19.22 8.24018 19.4999 6.69998 19.4999 5.22998V5.16016C19.4999 4.92016 19.61 4.6998 19.8 4.5498C20.5 3.9798 21.1199 3.30004 21.6299 2.54004C21.7599 2.34004 21.5499 2.08994 21.3299 2.18994Z" fill="#76A9EA"/>
</svg>
