<svg width="22" height="22" viewBox="0 0 22 22" fill="none" xmlns="http://www.w3.org/2000/svg">
<path d="M18.2995 9.27979C18.3295 6.27979 15.7694 3.52014 12.5894 3.14014C12.5294 3.13014 12.4595 3.11986 12.3895 3.10986C12.2295 3.07986 12.0695 3.0498 11.8995 3.0498C11.2495 3.0498 11.0795 3.50979 11.0295 3.77979C10.9895 4.04979 11.0295 4.2702 11.1595 4.4502C11.3795 4.7402 11.7595 4.79008 12.0595 4.83008C12.1495 4.84008 12.2295 4.86012 12.2995 4.87012C15.1595 5.51012 16.1194 6.50984 16.5894 9.33984C16.5994 9.40984 16.5995 9.49008 16.6095 9.58008C16.6295 9.92008 16.6695 10.6299 17.4295 10.6299C17.4895 10.6299 17.5595 10.6199 17.6295 10.6099C18.3295 10.4999 18.3095 9.8598 18.2995 9.5498C18.2995 9.4598 18.2895 9.38008 18.2995 9.33008C18.2995 9.31008 18.2995 9.29979 18.2995 9.27979Z" fill="#665CAC"/>
<path d="M11.72 2.02979C11.8 2.03979 11.88 2.05006 11.95 2.06006C16.63 2.78006 18.79 5.00022 19.38 9.72021C19.39 9.80021 19.4 9.89 19.4 10C19.4 10.37 19.42 11.1299 20.24 11.1499H20.27C20.52 11.1499 20.73 11.0699 20.88 10.9199C21.13 10.6499 21.12 10.2502 21.1 9.93018C21.1 9.85018 21.09 9.77996 21.09 9.70996C21.15 4.88996 16.98 0.510098 12.15 0.350098C12.13 0.340098 12.11 0.350098 12.09 0.350098C12.08 0.350098 12.07 0.350098 12.04 0.350098C11.99 0.350098 11.93 0.349844 11.87 0.339844C11.79 0.339844 11.71 0.330078 11.62 0.330078C10.85 0.330078 10.6999 0.880195 10.6899 1.2002C10.6399 1.9602 11.37 2.00979 11.72 2.02979Z" fill="#665CAC"/>
<path d="M19.1598 15.8199C19.0598 15.7399 18.9598 15.6601 18.8598 15.5801C18.3498 15.1701 17.7998 14.7902 17.2798 14.4302C17.1698 14.3502 17.0597 14.2703 16.9497 14.2003C16.2797 13.7203 15.6697 13.4903 15.0997 13.4903C14.3297 13.4903 13.6597 13.9198 13.0997 14.7598C12.8597 15.1298 12.5597 15.3101 12.1897 15.3101C11.9697 15.3101 11.7297 15.2499 11.4597 15.1299C9.27973 14.1399 7.72974 12.6299 6.83974 10.6299C6.40974 9.66994 6.54982 9.03984 7.29982 8.52984C7.72982 8.22984 8.52975 7.68996 8.47975 6.64996C8.40975 5.46996 5.80973 1.93008 4.70973 1.52008C4.24973 1.35008 3.75978 1.35008 3.25978 1.52008C1.99978 1.94008 1.0998 2.68998 0.649797 3.66998C0.209797 4.61998 0.229724 5.73996 0.699724 6.89996C2.06972 10.26 3.98982 13.1802 6.41982 15.6002C8.78982 17.9602 11.7097 19.9002 15.0897 21.3502C15.3897 21.4802 15.7097 21.5599 15.9397 21.6099C16.0197 21.6299 16.0898 21.64 16.1398 21.65C16.1698 21.66 16.1998 21.67 16.2298 21.67H16.2498C17.8398 21.67 19.7497 20.2101 20.3397 18.5601C20.8497 17.1101 19.9098 16.3899 19.1598 15.8199Z" fill="#665CAC"/>
<path d="M12.42 5.86989C12.15 5.86989 11.5899 5.88999 11.3899 6.46999C11.2899 6.72999 11.3 6.96993 11.42 7.15993C11.59 7.43993 11.9099 7.52985 12.2099 7.57985C13.2699 7.74985 13.82 8.33995 13.93 9.42995C13.98 9.93995 14.3199 10.2996 14.7599 10.2996C14.7999 10.2996 14.8299 10.2998 14.8599 10.2898C15.3899 10.2298 15.6499 9.83966 15.6299 9.12966C15.6399 8.39966 15.2499 7.55991 14.5999 6.88991C13.9399 6.22991 13.14 5.84989 12.42 5.86989Z" fill="#665CAC"/>
</svg>
