<svg width="22" height="14" viewBox="0 0 22 14" fill="none" xmlns="http://www.w3.org/2000/svg">
<path d="M18.0402 7.97998C17.6902 7.53998 17.7902 7.34996 18.0402 6.95996C18.0402 6.95996 20.8902 3.01994 21.1802 1.68994C21.3302 1.19994 21.1801 0.839844 20.4801 0.839844H18.1501C17.5501 0.839844 17.2801 1.15023 17.1301 1.49023C17.1301 1.49023 15.9401 4.34018 14.2601 6.18018C13.7201 6.71018 13.4702 6.87988 13.1702 6.87988C13.0302 6.87988 12.8002 6.70998 12.8002 6.22998V1.68994C12.8002 1.09994 12.6401 0.839844 12.1401 0.839844H8.4801C8.1001 0.839844 7.88013 1.12012 7.88013 1.37012C7.88013 1.92012 8.72018 2.0501 8.81018 3.6001V6.97998C8.81018 7.71998 8.68013 7.85986 8.38013 7.85986C7.59013 7.85986 5.66014 4.99998 4.52014 1.72998C4.29014 1.09998 4.07009 0.839844 3.47009 0.839844H1.13013C0.470127 0.839844 0.330078 1.15023 0.330078 1.49023C0.330078 2.10023 1.13014 5.1101 4.02014 9.1001C5.95014 11.8201 8.67014 13.29 11.1401 13.29C12.6201 13.29 12.8002 12.9599 12.8002 12.3999C12.8002 9.7999 12.6702 9.56006 13.4102 9.56006C13.7602 9.56006 14.3501 9.73004 15.7401 11.04C17.3201 12.59 17.5801 13.29 18.4701 13.29H20.8002C21.4702 13.29 21.8101 12.9598 21.6101 12.3198C21.1701 10.9598 18.1702 8.16998 18.0402 7.97998Z" fill="#4B729F"/>
</svg>
